<svg version="1" xmlns="http://www.w3.org/2000/svg" width="893.333" height="893.333"
     viewBox="0 0 670.000000 670.000000">
    <path d="M48 256.8c0 .4 10.7 23.9 23.9 52.2 13.1 28.3 25.5 55.1 27.5 59.5l3.7 7.9 5.8-12.7 5.9-12.7L93 303.7l-21.9-47.2-11.5-.3c-6.4-.1-11.6.1-11.6.6zM178.2 262.2c-4.6 10-42.4 91.1-53.8 115.5L114 399.8l5.7 12.4c3.1 6.7 5.8 12.5 5.9 12.7.2.2 1.6-2.3 3.1-5.5 1.4-3.2 18.8-40.6 38.6-82.9 19.7-42.4 36.1-77.8 36.4-78.8.5-1.5-.5-1.7-11.1-1.7H181l-2.8 6.2zM255 257.9c-8.2 2.6-11.8 4.8-18.3 10.9-10.9 10.4-15.2 21.4-14.5 37.1.3 8.6.7 10.5 4.1 17.4 6.5 13.7 18.8 23.5 33.5 26.6 2.9.6 9.5 1.1 14.6 1.1 11.4 0 17.1 1.8 22.6 7.2 5.7 5.4 8 10.8 8 18.8 0 11.1-5.4 19.5-15.5 24.1-3.6 1.7-7.2 1.9-35.7 1.9H222v22h31.3c24.9 0 32.5-.3 37.2-1.5 23.9-6.3 39.7-30 35.7-53.8-2.7-15.8-11.6-27.9-25.6-34.7-9-4.4-16.6-6-29.6-6-9.7 0-14.5-1.7-19.8-7.1-5.8-5.7-7.7-10.4-7.6-18.9 0-9 2.2-14 8.5-19.3 7.4-6.4 9.6-6.7 44.1-6.7H327v-21l-33.2.1c-29.1 0-34 .2-38.8 1.8zM360 266.5V277h113v-21H360v10.5zM495 266.5V277h62.5l5.8-9.9c3.1-5.4 5.7-10.1 5.7-10.5 0-.3-16.6-.6-37-.6h-37v10.5zM575.1 286.3c-9.6 16.6-31.4 54.2-48.3 83.5-16.9 29.4-30.8 53.8-30.8 54.3s24.3.8 60.8.7l60.7-.3v-21l-42.2-.3c-23.3-.1-42.3-.6-42.3-1s.6-1.6 1.4-2.7c.7-1.1 8.7-14.8 17.6-30.5 9-15.7 26.7-46.5 39.5-68.5s23.7-41 24.4-42.3l1.2-2.2h-12.3l-12.3.1-17.4 30.2zM407 361v64h21V297h-21v64z"/>
</svg>