<svg xmlns="http://www.w3.org/2000/svg" viewBox="50 100 250 50">
    <g fill="currentColor" transform="translate(53.5 98.1)">
        <path d="M45.4 16.4h-7.8V8H27v33.3L22.7 49l-4.3-7.6V8H7.8v8.4H0V0h45.4z"/>
    </g>
    <path fill="currentColor"
          d="M125.8 144.6q-1.8 0-2.5-2-.5-1.3-.5-3.6 0-2 .4-3.6h-.5q-2.4 2-4.5 2.9-2.4 1.1-5.1 1.1-1.8 0-3-.6-3.6-1.8-3.6-7.7 0-2 .5-4.5.4-1.6 1.6-4.5 1.4-3.3 3.2-6.7 2-4 3.8-6.1 2.2-2.7 3.9-2.7 1.5 0 2.7.8 1 .7 1 1.6 0 1-1 2.8-.9 1.6-3.5 5.4l-2 3q-2.3 3.4-2.9 6l-.4 2-.4 1.6q.1 1.5.7 2.2.8 1 2.3 1 5.2 0 12.2-12.4 2.2-4 4.6-9.6 1.8-4 2.5-6.4l1.2-.8q2.5 0 3.7 2 .7 1.5.7 3.6 1.1 0 1.6.2.6.2.6.7 0 .6-2.7 6.5l-5.6 11.5-5.8 11.3q-2.8 5-3.2 5zM170 145q-1.7 0-2.8-.9-2.2-1.7-2.9-5.8-.6-3.4-.6-7.8v-3.4q0-3.3-.6-3.3h-.5l-2.4 4.2q-6.1 10.6-8.4 14-2 3-2.5 3-1.3 0-1.9-1-.3-.5-.3-1.4 0-1.4 2.6-8 2.3-5.6 4.7-10.5 3-6.1 5.5-9.7 3-4.2 5-4.2 1.4 0 2.4 1 1.7 1.7 2.2 6 .3 3 .3 6.7v5.1q0 1.3.3 2.3.1 1 .6 1 .6-1.3 2.3-6.5 2-7 3.2-10 5-13.6 10.3-13.6.9 0 1.4.5.7.7.7 2.1v.7q-.2 1.7-1 2.7-.6 1.1-2.2 3l-1 1.4q-.6 1.6-1.6 3.5-3 6-3.1 6.5l-2.1 6.8q-.3 1.3-1.9 5.6l-1.6 4.8q-.3 1.3-1.4 3-1.4 2.2-2.7 2.2zM196.2 142.6l-2.2 1.2h-.5q-1 0-1-1.4v-.4q0-.7.4-1.8 1.7-7 5.4-14 3.7-7.2 9-13.6l.8-.2.8-.3q1-.2 1-.7l.1-.4-2.7-2.8q.2-.6 1.3-1 3.6-1.7 15.9-2.6 6-.4 11.5-.4.5 0 .5.4v.3l-.2.5-.2.4q-.2.9-.7 1.3l-1.3.6-1.6.4q-.8.3-1.5.9l.8 1q.4.8.7 1l-.1.4-.6.4-2.4.1q-7.2.1-10.4 1-3.6 1-4 3.1l-.1.7v.4l.4.2.8.1q1.8 0 3.8-.4l3.7-.8q1.1.5 1.1 1.2 0 2.4-5.5 4l-2.6.7q-3.3 1-4.5 2.1-.7 1.4-1.7 2.8l-2.2 3q-2.7 3.7-3.2 5.8v.1q0 .3.9.3 2.7 0 8.2-.8l4.2-.5q2.1-.3 6.2-.3.4 0 .8.4t.4.7v.1q0 .8-9.7 3-3.2.8-7.2 1.5-3.4.7-4.1.7l-1.6-.2-1.6-.2q-.8 0-1.2.4l-.8.8-.8.8q-.4.4-1.1.4l-1.4-.4zM248.7 141.8h-1.4q-1.8 0-3.3-.4-1.5-.4-3-1.6-.5-.2-.5-.6 0-.4.6-1.2.5-.7 2.4-2.4l4.8-4q2.9-2.2 6.1-4.9l6.8-6q3.5-3.2 6.7-6.9l.6-.4.6-.6.4-.6q.3-.2.3-.4l.1-.4-3.5.4-5.6.6q-3.7.3-6 .3-5 0-5-1.6v-.3q.1-.7 3.3-1.9 2.8-1 7.1-2.2l8-1.8q4.2-.7 5.8-.7 4.6 0 7 1.6 1.9 1.2 1.9 3 0 3.7-7 9.8L269 124l-2.7 2.2-4.2 3.6-.2.4q2.7 0 11-.9l7.7-.7 5.5-.1q.3.3.3.6l-.1.6q0 .2-8.4 2.3-14.7 3.8-18.8 5-2 .6-3.2 1.2l-1.5.6-3.4 1.7-2.4 1.3z"/>
</svg>
