<?xml version="1.0" encoding="utf-8"?><svg xmlns="http://www.w3.org/2000/svg" xmlns:xlink="http://www.w3.org/1999/xlink"><symbol viewBox="0 0 24 24" id="v-bar" xmlns="http://www.w3.org/2000/svg"><path fill="currentColor" d="M6.4 9.2h.2c.77 0 1.4.63 1.4 1.4v7c0 .77-.63 1.4-1.4 1.4h-.2c-.77 0-1.4-.63-1.4-1.4v-7c0-.77.63-1.4 1.4-1.4zM12 5c.77 0 1.4.63 1.4 1.4v11.2c0 .77-.63 1.4-1.4 1.4-.77 0-1.4-.63-1.4-1.4V6.4c0-.77.63-1.4 1.4-1.4zm5.6 8c.77 0 1.4.63 1.4 1.4v3.2c0 .77-.63 1.4-1.4 1.4-.77 0-1.4-.63-1.4-1.4v-3.2c0-.77.63-1.4 1.4-1.4z"/></symbol><symbol fill="none" stroke="currentColor" stroke-width="2" stroke-linecap="round" stroke-linejoin="round" class="bicon-chevron-left" viewBox="0 0 24 24" id="v-chevron-left" xmlns="http://www.w3.org/2000/svg"><path d="M15 18l-6-6 6-6"/></symbol><symbol fill="none" stroke="currentColor" stroke-width="2" stroke-linecap="round" stroke-linejoin="round" class="cicon-chevron-right" viewBox="0 0 24 24" id="v-chevron-right" xmlns="http://www.w3.org/2000/svg"><path d="M9 18l6-6-6-6"/></symbol><symbol viewBox="0 0 192 512" id="v-error" xmlns="http://www.w3.org/2000/svg"><path fill="currentColor" d="M176 432c0 44.112-35.888 80-80 80s-80-35.888-80-80 35.888-80 80-80 80 35.888 80 80zM25.26 25.199l13.6 272C39.499 309.972 50.041 320 62.83 320h66.34c12.789 0 23.331-10.028 23.97-22.801l13.6-272C167.425 11.49 156.496 0 142.77 0H49.23C35.504 0 24.575 11.49 25.26 25.199z"/></symbol><symbol fill="none" stroke="currentColor" stroke-width="2" stroke-linecap="round" stroke-linejoin="round" class="eicon-help-circle" viewBox="0 0 24 24" id="v-help-circle" xmlns="http://www.w3.org/2000/svg"><circle cx="12" cy="12" r="10"/><path d="M9.09 9a3 3 0 015.83 1c0 2-3 3-3 3M12 17h.01"/></symbol><symbol fill="none" stroke="currentColor" stroke-width="2" stroke-linecap="round" stroke-linejoin="round" class="ficon-image" viewBox="0 0 24 24" id="v-image" xmlns="http://www.w3.org/2000/svg"><rect x="3" y="3" width="18" height="18" rx="2" ry="2"/><circle cx="8.5" cy="8.5" r="1.5"/><path d="M21 15l-5-5L5 21"/></symbol><symbol viewBox="0 0 192 512" id="v-info" xmlns="http://www.w3.org/2000/svg"><path fill="currentColor" d="M20 424.229h20V279.771H20c-11.046 0-20-8.954-20-20V212c0-11.046 8.954-20 20-20h112c11.046 0 20 8.954 20 20v212.229h20c11.046 0 20 8.954 20 20V492c0 11.046-8.954 20-20 20H20c-11.046 0-20-8.954-20-20v-47.771c0-11.046 8.954-20 20-20zM96 0C56.235 0 24 32.235 24 72s32.235 72 72 72 72-32.235 72-72S135.764 0 96 0z"/></symbol><symbol viewBox="50 100 250 50" id="v-logo" xmlns="http://www.w3.org/2000/svg"><path d="M98.9 114.5h-7.8v-8.4H80.5v33.3l-4.3 7.7-4.3-7.6v-33.4H61.3v8.4h-7.8V98.1h45.4zM125.8 144.6q-1.8 0-2.5-2-.5-1.3-.5-3.6 0-2 .4-3.6h-.5q-2.4 2-4.5 2.9-2.4 1.1-5.1 1.1-1.8 0-3-.6-3.6-1.8-3.6-7.7 0-2 .5-4.5.4-1.6 1.6-4.5 1.4-3.3 3.2-6.7 2-4 3.8-6.1 2.2-2.7 3.9-2.7 1.5 0 2.7.8 1 .7 1 1.6 0 1-1 2.8-.9 1.6-3.5 5.4l-2 3q-2.3 3.4-2.9 6l-.4 2-.4 1.6q.1 1.5.7 2.2.8 1 2.3 1 5.2 0 12.2-12.4 2.2-4 4.6-9.6 1.8-4 2.5-6.4l1.2-.8q2.5 0 3.7 2 .7 1.5.7 3.6 1.1 0 1.6.2.6.2.6.7 0 .6-2.7 6.5l-5.6 11.5-5.8 11.3q-2.8 5-3.2 5zm44.2.4q-1.7 0-2.8-.9-2.2-1.7-2.9-5.8-.6-3.4-.6-7.8v-3.4q0-3.3-.6-3.3h-.5l-2.4 4.2q-6.1 10.6-8.4 14-2 3-2.5 3-1.3 0-1.9-1-.3-.5-.3-1.4 0-1.4 2.6-8 2.3-5.6 4.7-10.5 3-6.1 5.5-9.7 3-4.2 5-4.2 1.4 0 2.4 1 1.7 1.7 2.2 6 .3 3 .3 6.7v5.1q0 1.3.3 2.3.1 1 .6 1 .6-1.3 2.3-6.5 2-7 3.2-10 5-13.6 10.3-13.6.9 0 1.4.5.7.7.7 2.1v.7q-.2 1.7-1 2.7-.6 1.1-2.2 3l-1 1.4q-.6 1.6-1.6 3.5-3 6-3.1 6.5l-2.1 6.8q-.3 1.3-1.9 5.6l-1.6 4.8q-.3 1.3-1.4 3-1.4 2.2-2.7 2.2zm26.2-2.4l-2.2 1.2h-.5q-1 0-1-1.4v-.4q0-.7.4-1.8 1.7-7 5.4-14 3.7-7.2 9-13.6l.8-.2.8-.3q1-.2 1-.7l.1-.4-2.7-2.8q.2-.6 1.3-1 3.6-1.7 15.9-2.6 6-.4 11.5-.4.5 0 .5.4v.3l-.2.5-.2.4q-.2.9-.7 1.3l-1.3.6-1.6.4q-.8.3-1.5.9l.8 1q.4.8.7 1l-.1.4-.6.4-2.4.1q-7.2.1-10.4 1-3.6 1-4 3.1l-.1.7v.4l.4.2.8.1q1.8 0 3.8-.4l3.7-.8q1.1.5 1.1 1.2 0 2.4-5.5 4l-2.6.7q-3.3 1-4.5 2.1-.7 1.4-1.7 2.8l-2.2 3q-2.7 3.7-3.2 5.8v.1q0 .3.9.3 2.7 0 8.2-.8l4.2-.5q2.1-.3 6.2-.3.4 0 .8.4t.4.7v.1q0 .8-9.7 3-3.2.8-7.2 1.5-3.4.7-4.1.7l-1.6-.2-1.6-.2q-.8 0-1.2.4l-.8.8-.8.8q-.4.4-1.1.4l-1.4-.4zm52.5-.8h-1.4q-1.8 0-3.3-.4-1.5-.4-3-1.6-.5-.2-.5-.6 0-.4.6-1.2.5-.7 2.4-2.4l4.8-4q2.9-2.2 6.1-4.9l6.8-6q3.5-3.2 6.7-6.9l.6-.4.6-.6.4-.6q.3-.2.3-.4l.1-.4-3.5.4-5.6.6q-3.7.3-6 .3-5 0-5-1.6v-.3q.1-.7 3.3-1.9 2.8-1 7.1-2.2l8-1.8q4.2-.7 5.8-.7 4.6 0 7 1.6 1.9 1.2 1.9 3 0 3.7-7 9.8L269 124l-2.7 2.2-4.2 3.6-.2.4q2.7 0 11-.9l7.7-.7 5.5-.1q.3.3.3.6l-.1.6q0 .2-8.4 2.3-14.7 3.8-18.8 5-2 .6-3.2 1.2l-1.5.6-3.4 1.7-2.4 1.3z" fill="currentColor"/></symbol><symbol fill="none" stroke="currentColor" stroke-width="2" stroke-linecap="round" stroke-linejoin="round" class="iicon-music" viewBox="0 0 24 24" id="v-music" xmlns="http://www.w3.org/2000/svg"><path d="M9 18V5l12-2v13"/><circle cx="6" cy="18" r="3"/><circle cx="18" cy="16" r="3"/></symbol><symbol fill="none" stroke="currentColor" stroke-width="2" stroke-linecap="round" stroke-linejoin="round" class="jicon-pause" viewBox="0 0 24 24" id="v-pause" xmlns="http://www.w3.org/2000/svg"><path d="M6 4h4v16H6zM14 4h4v16h-4z"/></symbol><symbol fill="none" stroke="currentColor" stroke-width="2" stroke-linecap="round" stroke-linejoin="round" class="kicon-play" viewBox="0 0 24 24" id="v-play" xmlns="http://www.w3.org/2000/svg"><path d="M5 3l14 9-14 9V3z"/></symbol><symbol viewBox="0 0 24 24" id="v-playlist" xmlns="http://www.w3.org/2000/svg"><path d="M0 0h24v24H0z" fill="none"/><path fill="currentColor" d="M15 6H3v2h12V6zm0 4H3v2h12v-2zM3 16h8v-2H3v2zM17 6v8.18c-.31-.11-.65-.18-1-.18-1.66 0-3 1.34-3 3s1.34 3 3 3 3-1.34 3-3V8h3V6h-5z"/></symbol><symbol fill="none" stroke="currentColor" stroke-width="2" stroke-linecap="round" stroke-linejoin="round" class="micon-settings" viewBox="0 0 24 24" id="v-settings" xmlns="http://www.w3.org/2000/svg"><circle cx="12" cy="12" r="3"/><path d="M19.4 15a1.65 1.65 0 00.33 1.82l.06.06a2 2 0 010 2.83 2 2 0 01-2.83 0l-.06-.06a1.65 1.65 0 00-1.82-.33 1.65 1.65 0 00-1 1.51V21a2 2 0 01-2 2 2 2 0 01-2-2v-.09A1.65 1.65 0 009 19.4a1.65 1.65 0 00-1.82.33l-.06.06a2 2 0 01-2.83 0 2 2 0 010-2.83l.06-.06a1.65 1.65 0 00.33-1.82 1.65 1.65 0 00-1.51-1H3a2 2 0 01-2-2 2 2 0 012-2h.09A1.65 1.65 0 004.6 9a1.65 1.65 0 00-.33-1.82l-.06-.06a2 2 0 010-2.83 2 2 0 012.83 0l.06.06a1.65 1.65 0 001.82.33H9a1.65 1.65 0 001-1.51V3a2 2 0 012-2 2 2 0 012 2v.09a1.65 1.65 0 001 1.51 1.65 1.65 0 001.82-.33l.06-.06a2 2 0 012.83 0 2 2 0 010 2.83l-.06.06a1.65 1.65 0 00-.33 1.82V9a1.65 1.65 0 001.51 1H21a2 2 0 012 2 2 2 0 01-2 2h-.09a1.65 1.65 0 00-1.51 1z"/></symbol><symbol fill="none" stroke="currentColor" stroke-width="2" stroke-linecap="round" stroke-linejoin="round" class="nicon-shuffle" viewBox="0 0 24 24" id="v-shuffle" xmlns="http://www.w3.org/2000/svg"><path d="M16 3h5v5M4 20L21 3M21 16v5h-5M15 15l6 6M4 4l5 5"/></symbol><symbol viewBox="0 0 512 512" id="v-success" xmlns="http://www.w3.org/2000/svg"><path fill="currentColor" d="M173.898 439.404l-166.4-166.4c-9.997-9.997-9.997-26.206 0-36.204l36.203-36.204c9.997-9.998 26.207-9.998 36.204 0L192 312.69 432.095 72.596c9.997-9.997 26.207-9.997 36.204 0l36.203 36.204c9.997 9.997 9.997 26.206 0 36.204l-294.4 294.401c-9.998 9.997-26.207 9.997-36.204-.001z"/></symbol><symbol fill="currentColor" viewBox="0 0 24 24" id="v-tune" xmlns="http://www.w3.org/2000/svg"><path d="M3 18c0 .55.45 1 1 1h5v-2H4c-.55 0-1 .45-1 1zM3 6c0 .55.45 1 1 1h9V5H4c-.55 0-1 .45-1 1zm10 14v-1h7c.55 0 1-.45 1-1s-.45-1-1-1h-7v-1c0-.55-.45-1-1-1s-1 .45-1 1v4c0 .55.45 1 1 1s1-.45 1-1zM7 10v1H4c-.55 0-1 .45-1 1s.45 1 1 1h3v1c0 .55.45 1 1 1s1-.45 1-1v-4c0-.55-.45-1-1-1s-1 .45-1 1zm14 2c0-.55-.45-1-1-1h-9v2h9c.55 0 1-.45 1-1zm-5-3c.55 0 1-.45 1-1V7h3c.55 0 1-.45 1-1s-.45-1-1-1h-3V4c0-.55-.45-1-1-1s-1 .45-1 1v4c0 .55.45 1 1 1z"/></symbol><symbol fill="none" stroke="currentColor" stroke-width="2" stroke-linecap="round" stroke-linejoin="round" class="qicon-upload" viewBox="0 0 24 24" id="v-upload" xmlns="http://www.w3.org/2000/svg"><path d="M21 15v4a2 2 0 01-2 2H5a2 2 0 01-2-2v-4M17 8l-5-5-5 5M12 3v12"/></symbol><symbol viewBox="0 0 576 512" id="v-warning" xmlns="http://www.w3.org/2000/svg"><path fill="currentColor" d="M569.517 440.013C587.975 472.007 564.806 512 527.94 512H48.054c-36.937 0-59.999-40.055-41.577-71.987L246.423 23.985c18.467-32.009 64.72-31.951 83.154 0l239.94 416.028zM288 354c-25.405 0-46 20.595-46 46s20.595 46 46 46 46-20.595 46-46-20.595-46-46-46zm-43.673-165.346l7.418 136c.347 6.364 5.609 11.346 11.982 11.346h48.546c6.373 0 11.635-4.982 11.982-11.346l7.418-136c.375-6.874-5.098-12.654-11.982-12.654h-63.383c-6.884 0-12.356 5.78-11.981 12.654z"/></symbol></svg>